<svg xmlns="http://www.w3.org/2000/svg" style="background:0 0;background-color:transparent;color-scheme:light dark" xmlns:xlink="http://www.w3.org/1999/xlink" width="264" height="245" viewBox="-.5 -.5 264 245"><defs><linearGradient x1="100%" y1="0%" x2="0%" y2="0%" id="prefix__drawio-svg-E1fM-uBKDYvFoSgZrjRU-gradient-light-dark_e5ccff_442e5a_-1-light-dark_b95eff_b567f1_-1-e-0"><stop offset="0%" stop-color="light-dark(#b95eff ,#b567f1)"/><stop offset="100%" stop-color="light-dark(#e5ccff ,#442e5a)"/></linearGradient><style>@import url(https://fonts.googleapis.com/css2?family=Manrope:wght@400;500);</style></defs><path d="M66 130.75l43.84-25.27q21.66-12.48 43.32 0l87.68 50.54q21.66 12.48 0 24.96l-87.68 50.54q-21.66 12.48-43.32 0l-87.68-50.54q-21.66-12.48 0-24.96z" fill="none" stroke="light-dark(#b95eff ,#b567f1)" stroke-opacity=".4" stroke-miterlimit="10" pointer-events="all"/><path d="M66 119.75l43.84-25.27q21.66-12.48 43.32 0l87.68 50.54q21.66 12.48 0 24.96l-87.68 50.54q-21.66 12.48-43.32 0l-87.68-50.54q-21.66-12.48 0-24.96z" fill-opacity=".4" fill="url(#prefix__drawio-svg-E1fM-uBKDYvFoSgZrjRU-gradient-light-dark_e5ccff_442e5a_-1-light-dark_b95eff_b567f1_-1-e-0)" pointer-events="all"/><path d="M66 102.75l43.84-25.27q21.66-12.48 43.32 0l87.68 50.54q21.66 12.48 0 24.96l-87.68 50.54q-21.66 12.48-43.32 0l-87.68-50.54q-21.66-12.48 0-24.96z" fill="none" stroke="light-dark(#b95eff ,#b567f1)" stroke-opacity=".6" stroke-miterlimit="10" pointer-events="all"/><path d="M66 90.75l43.84-25.27q21.66-12.48 43.32 0l87.68 50.54q21.66 12.48 0 24.96l-87.68 50.54q-21.66 12.48-43.32 0l-87.68-50.54q-21.66-12.48 0-24.96z" fill-opacity=".48" fill="url(#prefix__drawio-svg-E1fM-uBKDYvFoSgZrjRU-gradient-light-dark_e5ccff_442e5a_-1-light-dark_b95eff_b567f1_-1-e-0)" pointer-events="all"/><path d="M65.5 76.75l43.84-25.27q21.66-12.48 43.32 0l87.68 50.54q21.66 12.48 0 24.96l-87.68 50.54q-21.66 12.48-43.32 0l-87.68-50.54q-21.66-12.48 0-24.96z" fill="none" stroke="light-dark(#b95eff ,#b567f1)" stroke-opacity=".8" stroke-miterlimit="10" pointer-events="all"/><path d="M65.5 64.75l43.84-25.27q21.66-12.48 43.32 0l87.68 50.54q21.66 12.48 0 24.96l-87.68 50.54q-21.66 12.48-43.32 0l-87.68-50.54Q0 102.5 21.66 90.02z" fill-opacity=".64" fill="url(#prefix__drawio-svg-E1fM-uBKDYvFoSgZrjRU-gradient-light-dark_e5ccff_442e5a_-1-light-dark_b95eff_b567f1_-1-e-0)" pointer-events="all"/><path d="M66 48.75l43.84-25.27q21.66-12.48 43.32 0l87.68 50.54q21.66 12.48 0 24.96l-87.68 50.54q-21.66 12.48-43.32 0L22.16 98.98Q.5 86.5 22.16 74.02z" fill="none" stroke="light-dark(#b95eff ,#b567f1)" stroke-miterlimit="10" pointer-events="all"/><path d="M66 37.75l43.84-25.27q21.66-12.48 43.32 0l87.68 50.54q21.66 12.48 0 24.96l-87.68 50.54q-21.66 12.48-43.32 0L22.16 87.98Q.5 75.5 22.16 63.02z" fill="url(#prefix__drawio-svg-E1fM-uBKDYvFoSgZrjRU-gradient-light-dark_e5ccff_442e5a_-1-light-dark_b95eff_b567f1_-1-e-0)" pointer-events="all"/><svg width="108" height="63" fill="none" xmlns="http://www.w3.org/2000/svg" x="77" y="43.5" font-family="initial"><path d="M49.217 34.267l-20.492 11.83M72.637 50.86l-17.83 10.294M69.444 37.647L41.765 53.626M28.724 31.04l-13.04 7.529M26.063 17.52L2.643 31.04M35.644 10.453l.089 2.344c.307 8.11 12.307 14.42 26.323 13.843v0c15.533-.64 28.169 7.114 26.113 16.026l-.313 1.357" stroke="#fff" stroke-width="4"/></svg></svg>